<!DOCTYPE svg PUBLIC "-//W3C//DTD SVG 1.1//EN" "http://www.w3.org/Graphics/SVG/1.1/DTD/svg11.dtd">

<!-- Uploaded to: SVG Repo, www.svgrepo.com, Transformed by: SVG Repo Mixer Tools -->
<svg width="800px" height="800px" viewBox="-2.8 -2.8 33.60 33.60" fill="none"
    xmlns="http://www.w3.org/2000/svg" transform="matrix(-1, 0, 0, 1, 0, 0)rotate(0)">

    <g id="SVGRepo_bgCarrier" stroke-width="0">

        <path transform="translate(-2.8, -2.8), scale(1.05)"
            d="M16,30.20391122339403C18.28890222876869,30.650189099800986,20.9425028112391,30.34754558769365,22.769644840056834,28.89848059178753C24.594697259206846,27.451072818022244,24.432881201417477,24.639351335671794,25.57570793478365,22.609633952954415C26.596164773209587,20.797251618175512,28.523544170956043,19.583043122533585,29.13416415990388,17.594776260262268C29.787218647078433,15.46833654389446,30.309725221752164,12.907659440898856,29.13552606247883,11.018352063861698C27.932005864177878,9.08186661238991,24.746123586544762,9.559341110158133,23.13654712203083,7.944503540505043C21.367387265640463,6.169560960387253,21.907295465519606,2.391183998216723,19.588650748480973,1.4402715751581106C17.396954962191348,0.5414228919455133,15.013968610781173,2.553982855009381,12.988710214637745,3.78271708331234C11.294067953268597,4.810864876817666,10.283673766691214,6.561964424523428,8.865065306952586,7.9463235965832695C7.518761527197482,9.260123731559343,5.803606327474878,10.157518643925162,4.815738984636365,11.75836928499047C3.726414010878749,13.523633209555083,2.908302999858707,15.51452797179535,2.9147783433176517,17.588833564457236C2.921542077455002,19.75552196289318,3.4503001398240176,22.0428500398659,4.85299903353836,23.694219222571256C6.231653447917816,25.317281323574505,8.648277606473902,25.42980175873155,10.487222582940976,26.503719796352463C12.426524510351621,27.636244883775376,13.795732018858178,29.774134878519305,16,30.20391122339403"
            fill="#7ed0ec" strokewidth="0" />

    </g>

    <g id="SVGRepo_tracerCarrier" stroke-linecap="round" stroke-linejoin="round" />

    <g id="SVGRepo_iconCarrier">

        <path
            d="M8 7.29805C8 6.85622 8.35817 6.49805 8.8 6.49805H25.2C25.6418 6.49805 26 6.85622 26 7.29805V7.69805C26 8.13987 25.6418 8.49805 25.2 8.49805H8.8C8.35817 8.49805 8 8.13987 8 7.69805V7.29805Z"
            fill="#000000" />

        <path
            d="M8 21.298C8 20.8562 8.35817 20.498 8.8 20.498H25.2C25.6418 20.498 26 20.8562 26 21.298V21.698C26 22.1399 25.6418 22.498 25.2 22.498H8.8C8.35817 22.498 8 22.1399 8 21.698V21.298Z"
            fill="#000000" />

        <path
            d="M8 14.298C8 13.8562 8.35817 13.498 8.8 13.498H25.2C25.6418 13.498 26 13.8562 26 14.298V14.698C26 15.1399 25.6418 15.498 25.2 15.498H8.8C8.35817 15.498 8 15.1399 8 14.698V14.298Z"
            fill="#000000" />

        <path
            d="M5 7.5C5 8.32843 4.32843 9 3.5 9C2.67157 9 2 8.32843 2 7.5C2 6.67157 2.67157 6 3.5 6C4.32843 6 5 6.67157 5 7.5Z"
            fill="#000000" />

        <path
            d="M5 21.498C5 22.3265 4.32843 22.998 3.5 22.998C2.67157 22.998 2 22.3265 2 21.498C2 20.6696 2.67157 19.998 3.5 19.998C4.32843 19.998 5 20.6696 5 21.498Z"
            fill="#000000" />

        <path
            d="M5 14.498C5 15.3265 4.32843 15.998 3.5 15.998C2.67157 15.998 2 15.3265 2 14.498C2 13.6696 2.67157 12.998 3.5 12.998C4.32843 12.998 5 13.6696 5 14.498Z"
            fill="#000000" />

    </g>

</svg>